<?xml version="1.0" encoding="UTF-8" standalone="no"?>
<svg
   width="514.371"
   height="368.068"
   version="1.1"
   id="svg53"
   sodipodi:docname="SCC_llama3d1-405b_KNn.svg"
   inkscape:version="1.4 (e7c3feb1, 2024-10-09)"
   xmlns:inkscape="http://www.inkscape.org/namespaces/inkscape"
   xmlns:sodipodi="http://sodipodi.sourceforge.net/DTD/sodipodi-0.dtd"
   xmlns="http://www.w3.org/2000/svg"
   xmlns:svg="http://www.w3.org/2000/svg">
  <sodipodi:namedview
     id="namedview53"
     pagecolor="#ffffff"
     bordercolor="#000000"
     borderopacity="0.25"
     inkscape:showpageshadow="2"
     inkscape:pageopacity="0.0"
     inkscape:pagecheckerboard="0"
     inkscape:deskcolor="#d1d1d1"
     inkscape:zoom="1.5983809"
     inkscape:cx="255.88394"
     inkscape:cy="183.93613"
     inkscape:window-width="1920"
     inkscape:window-height="1027"
     inkscape:window-x="1512"
     inkscape:window-y="25"
     inkscape:window-maximized="0"
     inkscape:current-layer="svg53" />
  <defs
     id="defs17">
    <clipPath
       id="a"
       clipPathUnits="userSpaceOnUse">
      <path
         d="M43.778 37.544h334.8v221.76h-334.8Z"
         id="path1" />
    </clipPath>
    <clipPath
       id="b"
       clipPathUnits="userSpaceOnUse">
      <path
         d="M43.778 37.544h334.8v221.76h-334.8Z"
         id="path2" />
    </clipPath>
    <clipPath
       id="c"
       clipPathUnits="userSpaceOnUse">
      <path
         d="M43.778 37.544h334.8v221.76h-334.8Z"
         id="path3" />
    </clipPath>
    <clipPath
       id="d"
       clipPathUnits="userSpaceOnUse">
      <path
         d="M43.778 37.544h334.8v221.76h-334.8Z"
         id="path4" />
    </clipPath>
    <clipPath
       id="e"
       clipPathUnits="userSpaceOnUse">
      <path
         d="M43.778 37.544h334.8v221.76h-334.8Z"
         id="path5" />
    </clipPath>
    <clipPath
       id="f"
       clipPathUnits="userSpaceOnUse">
      <path
         d="M43.778 37.544h334.8v221.76h-334.8Z"
         id="path6" />
    </clipPath>
    <clipPath
       id="g"
       clipPathUnits="userSpaceOnUse">
      <path
         d="M43.778 37.544h334.8v221.76h-334.8Z"
         id="path7" />
    </clipPath>
    <clipPath
       id="h"
       clipPathUnits="userSpaceOnUse">
      <path
         d="M43.778 37.544h334.8v221.76h-334.8Z"
         id="path8" />
    </clipPath>
    <clipPath
       id="i"
       clipPathUnits="userSpaceOnUse">
      <path
         d="M43.778 37.544h334.8v221.76h-334.8Z"
         id="path9" />
    </clipPath>
    <clipPath
       id="j"
       clipPathUnits="userSpaceOnUse">
      <path
         d="M43.778 37.544h334.8v221.76h-334.8Z"
         id="path10" />
    </clipPath>
    <clipPath
       id="k"
       clipPathUnits="userSpaceOnUse">
      <path
         d="M43.778 37.544h334.8v221.76h-334.8Z"
         id="path11" />
    </clipPath>
    <clipPath
       id="l"
       clipPathUnits="userSpaceOnUse">
      <path
         d="M43.778 37.544h334.8v221.76h-334.8Z"
         id="path12" />
    </clipPath>
    <clipPath
       id="m"
       clipPathUnits="userSpaceOnUse">
      <path
         d="M43.778 37.544h334.8v221.76h-334.8Z"
         id="path13" />
    </clipPath>
    <clipPath
       id="n"
       clipPathUnits="userSpaceOnUse">
      <path
         d="M43.778 37.544h334.8v221.76h-334.8Z"
         id="path14" />
    </clipPath>
    <clipPath
       id="o"
       clipPathUnits="userSpaceOnUse">
      <path
         d="M43.778 37.544h334.8v221.76h-334.8Z"
         id="path15" />
    </clipPath>
    <clipPath
       id="p"
       clipPathUnits="userSpaceOnUse">
      <path
         d="M43.778 37.544h334.8v221.76h-334.8Z"
         id="path16" />
    </clipPath>
    <clipPath
       id="q"
       clipPathUnits="userSpaceOnUse">
      <path
         d="M43.778 37.544h334.8v221.76h-334.8Z"
         id="path17" />
    </clipPath>
  </defs>
  <path
     d="M43.778 37.544h334.8v221.76h-334.8Z"
     style="fill:#fff;fill-opacity:1;fill-rule:nonzero;stroke:none"
     transform="matrix(1.33333 0 0 -1.33333 0 368.068)"
     id="path19" />
  <g
     clip-path="url(#a)"
     transform="matrix(1.33333 0 0 -1.33333 0 368.068)"
     id="g20">
    <path
       d="M181.285 253.177a2.236 2.236 0 1 1 0 4.473 2.236 2.236 0 0 1 0-4.473z"
       style="fill:#08326e;fill-opacity:.3;fill-rule:nonzero;stroke:#08326e;stroke-width:1;stroke-linecap:butt;stroke-linejoin:round;stroke-miterlimit:10;stroke-dasharray:none;stroke-opacity:.3"
       id="path20" />
  </g>
  <g
     clip-path="url(#b)"
     transform="matrix(1.33333 0 0 -1.33333 0 368.068)"
     id="g21">
    <path
       d="M241.071 239.675a2.236 2.236 0 1 1 0 4.472 2.236 2.236 0 0 1 0-4.472z"
       style="fill:#08326e;fill-opacity:.3;fill-rule:nonzero;stroke:#08326e;stroke-width:1;stroke-linecap:butt;stroke-linejoin:round;stroke-miterlimit:10;stroke-dasharray:none;stroke-opacity:.3"
       id="path21" />
  </g>
  <g
     clip-path="url(#c)"
     transform="matrix(1.33333 0 0 -1.33333 0 368.068)"
     id="g22">
    <path
       d="M300.857 170.088a2.236 2.236 0 1 1 0 4.473 2.236 2.236 0 0 1 0-4.473z"
       style="fill:#08326e;fill-opacity:.3;fill-rule:nonzero;stroke:#08326e;stroke-width:1;stroke-linecap:butt;stroke-linejoin:round;stroke-miterlimit:10;stroke-dasharray:none;stroke-opacity:.3"
       id="path22" />
  </g>
  <g
     clip-path="url(#d)"
     transform="matrix(1.33333 0 0 -1.33333 0 368.068)"
     id="g23">
    <path
       d="M360.642 106.055a2.236 2.236 0 1 1 0 4.473 2.236 2.236 0 0 1 0-4.473z"
       style="fill:#08326e;fill-opacity:.3;fill-rule:nonzero;stroke:#08326e;stroke-width:1;stroke-linecap:butt;stroke-linejoin:round;stroke-miterlimit:10;stroke-dasharray:none;stroke-opacity:.3"
       id="path23" />
  </g>
  <g
     clip-path="url(#e)"
     transform="matrix(1.33333 0 0 -1.33333 0 368.068)"
     id="g24">
    <path
       d="M61.714 37.544v221.76"
       style="fill:none;stroke:#b0b0b0;stroke-width:.8;stroke-linecap:square;stroke-linejoin:round;stroke-miterlimit:10;stroke-dasharray:none;stroke-opacity:.3"
       id="path24" />
  </g>
  <path
     d="M61.714 37.544v-3.5"
     style="fill:#000;fill-opacity:1;fill-rule:nonzero;stroke:#000;stroke-width:.8;stroke-linecap:butt;stroke-linejoin:round;stroke-miterlimit:10;stroke-dasharray:none;stroke-opacity:1"
     transform="matrix(1.33333 0 0 -1.33333 0 368.068)"
     id="path25" />
  <text
     xml:space="preserve"
     style="font-variant:normal;font-weight:400;font-size:10px;font-family:&quot;DejaVu Sans&quot;;-inkscape-font-specification:DejaVuSans;writing-mode:lr-tb;fill:#000;fill-opacity:1;fill-rule:nonzero;stroke:none"
     transform="translate(78.046 337.468)scale(1.33333)"
     id="text25"><tspan
       x="0"
       y="0"
       id="tspan25">0</tspan></text>
  <g
     clip-path="url(#f)"
     transform="matrix(1.33333 0 0 -1.33333 0 368.068)"
     id="g26">
    <path
       d="M121.5 37.544v221.76"
       style="fill:none;stroke:#b0b0b0;stroke-width:.8;stroke-linecap:square;stroke-linejoin:round;stroke-miterlimit:10;stroke-dasharray:none;stroke-opacity:.3"
       id="path26" />
  </g>
  <path
     d="M121.5 37.544v-3.5"
     style="fill:#000;fill-opacity:1;fill-rule:nonzero;stroke:#000;stroke-width:.8;stroke-linecap:butt;stroke-linejoin:round;stroke-miterlimit:10;stroke-dasharray:none;stroke-opacity:1"
     transform="matrix(1.33333 0 0 -1.33333 0 368.068)"
     id="path27" />
  <text
     xml:space="preserve"
     style="font-variant:normal;font-weight:400;font-size:10px;font-family:&quot;DejaVu Sans&quot;;-inkscape-font-specification:DejaVuSans;writing-mode:lr-tb;fill:#000;fill-opacity:1;fill-rule:nonzero;stroke:none"
     transform="translate(157.76 337.468)scale(1.33333)"
     id="text27"><tspan
       x="0"
       y="0"
       id="tspan27">1</tspan></text>
  <g
     clip-path="url(#g)"
     transform="matrix(1.33333 0 0 -1.33333 0 368.068)"
     id="g28">
    <path
       d="M181.285 37.544v221.76"
       style="fill:none;stroke:#b0b0b0;stroke-width:.8;stroke-linecap:square;stroke-linejoin:round;stroke-miterlimit:10;stroke-dasharray:none;stroke-opacity:.3"
       id="path28" />
  </g>
  <path
     d="M181.285 37.544v-3.5"
     style="fill:#000;fill-opacity:1;fill-rule:nonzero;stroke:#000;stroke-width:.8;stroke-linecap:butt;stroke-linejoin:round;stroke-miterlimit:10;stroke-dasharray:none;stroke-opacity:1"
     transform="matrix(1.33333 0 0 -1.33333 0 368.068)"
     id="path29" />
  <text
     xml:space="preserve"
     style="font-variant:normal;font-weight:400;font-size:10px;font-family:&quot;DejaVu Sans&quot;;-inkscape-font-specification:DejaVuSans;writing-mode:lr-tb;fill:#000;fill-opacity:1;fill-rule:nonzero;stroke:none"
     transform="translate(237.474 337.468)scale(1.33333)"
     id="text29"><tspan
       x="0"
       y="0"
       id="tspan29">2</tspan></text>
  <g
     clip-path="url(#h)"
     transform="matrix(1.33333 0 0 -1.33333 0 368.068)"
     id="g30">
    <path
       d="M241.071 37.544v221.76"
       style="fill:none;stroke:#b0b0b0;stroke-width:.8;stroke-linecap:square;stroke-linejoin:round;stroke-miterlimit:10;stroke-dasharray:none;stroke-opacity:.3"
       id="path30" />
  </g>
  <path
     d="M241.071 37.544v-3.5"
     style="fill:#000;fill-opacity:1;fill-rule:nonzero;stroke:#000;stroke-width:.8;stroke-linecap:butt;stroke-linejoin:round;stroke-miterlimit:10;stroke-dasharray:none;stroke-opacity:1"
     transform="matrix(1.33333 0 0 -1.33333 0 368.068)"
     id="path31" />
  <text
     xml:space="preserve"
     style="font-variant:normal;font-weight:400;font-size:10px;font-family:&quot;DejaVu Sans&quot;;-inkscape-font-specification:DejaVuSans;writing-mode:lr-tb;fill:#000;fill-opacity:1;fill-rule:nonzero;stroke:none"
     transform="translate(317.188 337.468)scale(1.33333)"
     id="text31"><tspan
       x="0"
       y="0"
       id="tspan31">3</tspan></text>
  <g
     clip-path="url(#i)"
     transform="matrix(1.33333 0 0 -1.33333 0 368.068)"
     id="g32">
    <path
       d="M300.857 37.544v221.76"
       style="fill:none;stroke:#b0b0b0;stroke-width:.8;stroke-linecap:square;stroke-linejoin:round;stroke-miterlimit:10;stroke-dasharray:none;stroke-opacity:.3"
       id="path32" />
  </g>
  <path
     d="M300.857 37.544v-3.5"
     style="fill:#000;fill-opacity:1;fill-rule:nonzero;stroke:#000;stroke-width:.8;stroke-linecap:butt;stroke-linejoin:round;stroke-miterlimit:10;stroke-dasharray:none;stroke-opacity:1"
     transform="matrix(1.33333 0 0 -1.33333 0 368.068)"
     id="path33" />
  <text
     xml:space="preserve"
     style="font-variant:normal;font-weight:400;font-size:10px;font-family:&quot;DejaVu Sans&quot;;-inkscape-font-specification:DejaVuSans;writing-mode:lr-tb;fill:#000;fill-opacity:1;fill-rule:nonzero;stroke:none"
     transform="translate(396.903 337.468)scale(1.33333)"
     id="text33"><tspan
       x="0"
       y="0"
       id="tspan33">4</tspan></text>
  <g
     clip-path="url(#j)"
     transform="matrix(1.33333 0 0 -1.33333 0 368.068)"
     id="g34">
    <path
       d="M360.642 37.544v221.76"
       style="fill:none;stroke:#b0b0b0;stroke-width:.8;stroke-linecap:square;stroke-linejoin:round;stroke-miterlimit:10;stroke-dasharray:none;stroke-opacity:.3"
       id="path34" />
  </g>
  <path
     d="M360.642 37.544v-3.5"
     style="fill:#000;fill-opacity:1;fill-rule:nonzero;stroke:#000;stroke-width:.8;stroke-linecap:butt;stroke-linejoin:round;stroke-miterlimit:10;stroke-dasharray:none;stroke-opacity:1"
     transform="matrix(1.33333 0 0 -1.33333 0 368.068)"
     id="path35" />
  <text
     xml:space="preserve"
     style="font-variant:normal;font-weight:400;font-size:10px;font-family:&quot;DejaVu Sans&quot;;-inkscape-font-specification:DejaVuSans;writing-mode:lr-tb;fill:#000;fill-opacity:1;fill-rule:nonzero;stroke:none"
     transform="translate(476.617 337.468)scale(1.33333)"
     id="text35"><tspan
       x="0"
       y="0"
       id="tspan35">5</tspan></text>
  <text
     xml:space="preserve"
     style="font-variant:normal;font-weight:400;font-size:10px;font-family:&quot;DejaVu Sans&quot;;-inkscape-font-specification:DejaVuSans;writing-mode:lr-tb;fill:#000;fill-opacity:1;fill-rule:nonzero;stroke:none"
     transform="translate(267.977 355.697)scale(1.33333)"
     id="text36"><tspan
       x="0 6.5599999 14.04"
       y="0"
       id="tspan36">KNn</tspan></text>
  <g
     clip-path="url(#k)"
     transform="matrix(1.33333 0 0 -1.33333 0 368.068)"
     id="g36">
    <path
       d="M43.778 37.544h334.8"
       style="fill:none;stroke:#b0b0b0;stroke-width:.8;stroke-linecap:square;stroke-linejoin:round;stroke-miterlimit:10;stroke-dasharray:none;stroke-opacity:.3"
       id="path36" />
  </g>
  <path
     d="M43.778 37.544h-3.5"
     style="fill:#000;fill-opacity:1;fill-rule:nonzero;stroke:#000;stroke-width:.8;stroke-linecap:butt;stroke-linejoin:round;stroke-miterlimit:10;stroke-dasharray:none;stroke-opacity:1"
     transform="matrix(1.33333 0 0 -1.33333 0 368.068)"
     id="path37" />
  <text
     xml:space="preserve"
     style="font-variant:normal;font-weight:400;font-size:10px;font-family:&quot;DejaVu Sans&quot;;-inkscape-font-specification:DejaVuSans;writing-mode:lr-tb;fill:#000;fill-opacity:1;fill-rule:nonzero;stroke:none"
     transform="translate(27.83 323.072)scale(1.33333)"
     id="text37"><tspan
       x="0 6.3600001 9.54"
       y="0"
       id="tspan37">0.0</tspan></text>
  <g
     clip-path="url(#l)"
     transform="matrix(1.33333 0 0 -1.33333 0 368.068)"
     id="g38">
    <path
       d="M43.778 81.896h334.8"
       style="fill:none;stroke:#b0b0b0;stroke-width:.8;stroke-linecap:square;stroke-linejoin:round;stroke-miterlimit:10;stroke-dasharray:none;stroke-opacity:.3"
       id="path38" />
  </g>
  <path
     d="M43.778 81.896h-3.5"
     style="fill:#000;fill-opacity:1;fill-rule:nonzero;stroke:#000;stroke-width:.8;stroke-linecap:butt;stroke-linejoin:round;stroke-miterlimit:10;stroke-dasharray:none;stroke-opacity:1"
     transform="matrix(1.33333 0 0 -1.33333 0 368.068)"
     id="path39" />
  <text
     xml:space="preserve"
     style="font-variant:normal;font-weight:400;font-size:10px;font-family:&quot;DejaVu Sans&quot;;-inkscape-font-specification:DejaVuSans;writing-mode:lr-tb;fill:#000;fill-opacity:1;fill-rule:nonzero;stroke:none"
     transform="translate(27.83 263.936)scale(1.33333)"
     id="text39"><tspan
       x="0 6.3600001 9.54"
       y="0"
       id="tspan39">0.2</tspan></text>
  <g
     clip-path="url(#m)"
     transform="matrix(1.33333 0 0 -1.33333 0 368.068)"
     id="g40">
    <path
       d="M43.778 126.248h334.8"
       style="fill:none;stroke:#b0b0b0;stroke-width:.8;stroke-linecap:square;stroke-linejoin:round;stroke-miterlimit:10;stroke-dasharray:none;stroke-opacity:.3"
       id="path40" />
  </g>
  <path
     d="M43.778 126.248h-3.5"
     style="fill:#000;fill-opacity:1;fill-rule:nonzero;stroke:#000;stroke-width:.8;stroke-linecap:butt;stroke-linejoin:round;stroke-miterlimit:10;stroke-dasharray:none;stroke-opacity:1"
     transform="matrix(1.33333 0 0 -1.33333 0 368.068)"
     id="path41" />
  <text
     xml:space="preserve"
     style="font-variant:normal;font-weight:400;font-size:10px;font-family:&quot;DejaVu Sans&quot;;-inkscape-font-specification:DejaVuSans;writing-mode:lr-tb;fill:#000;fill-opacity:1;fill-rule:nonzero;stroke:none"
     transform="translate(27.83 204.8)scale(1.33333)"
     id="text41"><tspan
       x="0 6.3600001 9.54"
       y="0"
       id="tspan41">0.4</tspan></text>
  <g
     clip-path="url(#n)"
     transform="matrix(1.33333 0 0 -1.33333 0 368.068)"
     id="g42">
    <path
       d="M43.778 170.6h334.8"
       style="fill:none;stroke:#b0b0b0;stroke-width:.8;stroke-linecap:square;stroke-linejoin:round;stroke-miterlimit:10;stroke-dasharray:none;stroke-opacity:.3"
       id="path42" />
  </g>
  <path
     d="M43.778 170.6h-3.5"
     style="fill:#000;fill-opacity:1;fill-rule:nonzero;stroke:#000;stroke-width:.8;stroke-linecap:butt;stroke-linejoin:round;stroke-miterlimit:10;stroke-dasharray:none;stroke-opacity:1"
     transform="matrix(1.33333 0 0 -1.33333 0 368.068)"
     id="path43" />
  <text
     xml:space="preserve"
     style="font-variant:normal;font-weight:400;font-size:10px;font-family:&quot;DejaVu Sans&quot;;-inkscape-font-specification:DejaVuSans;writing-mode:lr-tb;fill:#000;fill-opacity:1;fill-rule:nonzero;stroke:none"
     transform="translate(27.83 145.664)scale(1.33333)"
     id="text43"><tspan
       x="0 6.3600001 9.54"
       y="0"
       id="tspan43">0.6</tspan></text>
  <g
     clip-path="url(#o)"
     transform="matrix(1.33333 0 0 -1.33333 0 368.068)"
     id="g44">
    <path
       d="M43.778 214.952h334.8"
       style="fill:none;stroke:#b0b0b0;stroke-width:.8;stroke-linecap:square;stroke-linejoin:round;stroke-miterlimit:10;stroke-dasharray:none;stroke-opacity:.3"
       id="path44" />
  </g>
  <path
     d="M43.778 214.952h-3.5"
     style="fill:#000;fill-opacity:1;fill-rule:nonzero;stroke:#000;stroke-width:.8;stroke-linecap:butt;stroke-linejoin:round;stroke-miterlimit:10;stroke-dasharray:none;stroke-opacity:1"
     transform="matrix(1.33333 0 0 -1.33333 0 368.068)"
     id="path45" />
  <text
     xml:space="preserve"
     style="font-variant:normal;font-weight:400;font-size:10px;font-family:&quot;DejaVu Sans&quot;;-inkscape-font-specification:DejaVuSans;writing-mode:lr-tb;fill:#000;fill-opacity:1;fill-rule:nonzero;stroke:none"
     transform="translate(27.83 86.528)scale(1.33333)"
     id="text45"><tspan
       x="0 6.3600001 9.54"
       y="0"
       id="tspan45">0.8</tspan></text>
  <g
     clip-path="url(#p)"
     transform="matrix(1.33333 0 0 -1.33333 0 368.068)"
     id="g46">
    <path
       d="M43.778 259.304h334.8"
       style="fill:none;stroke:#b0b0b0;stroke-width:.8;stroke-linecap:square;stroke-linejoin:round;stroke-miterlimit:10;stroke-dasharray:none;stroke-opacity:.3"
       id="path46" />
  </g>
  <path
     d="M43.778 259.304h-3.5"
     style="fill:#000;fill-opacity:1;fill-rule:nonzero;stroke:#000;stroke-width:.8;stroke-linecap:butt;stroke-linejoin:round;stroke-miterlimit:10;stroke-dasharray:none;stroke-opacity:1"
     transform="matrix(1.33333 0 0 -1.33333 0 368.068)"
     id="path47" />
  <text
     xml:space="preserve"
     style="font-variant:normal;font-weight:400;font-size:10px;font-family:&quot;DejaVu Sans&quot;;-inkscape-font-specification:DejaVuSans;writing-mode:lr-tb;fill:#000;fill-opacity:1;fill-rule:nonzero;stroke:none"
     transform="translate(27.83 27.392)scale(1.33333)"
     id="text47"><tspan
       x="0 6.3600001 9.54"
       y="0"
       id="tspan47">1.0</tspan></text>
  <text
     xml:space="preserve"
     style="font-variant:normal;font-weight:400;font-size:10px;font-family:&quot;DejaVu Sans&quot;;-inkscape-font-specification:DejaVuSans;writing-mode:lr-tb;fill:#000;fill-opacity:1;fill-rule:nonzero;stroke:none"
     transform="rotate(-90 127.067 107.342)scale(1.33333)"
     id="text48"><tspan
       x="0 6.3499999 12.69 18.190001 23.690001 29.84 35.049999 40.259998 43.439999 49.298126 53.189377 59.309376 65.659378 71.789375 78.139374 80.919373 83.699371 86.479378 90.399376"
       y="0"
       id="tspan48">Success Probability</tspan></text>
  <g
     clip-path="url(#q)"
     transform="matrix(1.33333 0 0 -1.33333 0 368.068)"
     id="g48">
    <path
       d="m61.714 259.039 2.99-.021 2.988-.023 2.99-.024 2.989-.026 2.99-.028 2.989-.03 2.989-.034 2.99-.035 2.988-.039 2.99-.04 2.989-.045 2.99-.048 2.989-.052 2.989-.056 2.99-.06 2.988-.065 2.99-.07 2.989-.076 2.99-.082 2.989-.088 2.989-.094 2.99-.102 2.988-.11 2.99-.12 2.989-.127 2.99-.138 2.989-.148 2.989-.16 2.99-.172 2.988-.186 2.99-.2 2.989-.215 2.99-.232 2.989-.25 2.989-.269 2.99-.289 2.988-.31 2.99-.336 2.989-.36 2.99-.387 2.989-.416 2.989-.447 2.99-.48 2.988-.517 2.99-.554 2.989-.594 2.99-.638 2.989-.684 2.989-.733 2.99-.785 2.988-.84 2.99-.9 2.989-.962 2.99-1.028 2.989-1.098 2.989-1.172 2.99-1.249 2.988-1.33 2.99-1.417 2.989-1.507 2.99-1.6 2.989-1.698 2.989-1.8 2.99-1.904 2.988-2.014 2.99-2.126 2.989-2.241 2.99-2.359 2.989-2.479 2.989-2.6 2.99-2.723 2.988-2.847 2.99-2.969 2.989-3.091 2.99-3.212 2.989-3.329 2.989-3.443 2.99-3.553 2.988-3.656 2.99-3.755 2.989-3.844 2.99-3.927 2.989-4 2.989-4.064 2.99-4.116 2.988-4.158 2.99-4.189 2.989-4.207 2.99-4.213 2.989-4.208 2.989-4.19 2.99-4.16 2.988-4.118 2.99-4.067 2.989-4.003 2.99-3.93 2.989-3.85 2.989-3.759 2.99-3.662 2.988-3.558"
       style="fill:none;stroke:#08326e;stroke-width:2;stroke-linecap:square;stroke-linejoin:round;stroke-miterlimit:10;stroke-dasharray:none;stroke-opacity:.8"
       id="path48" />
  </g>
  <path
     d="M43.778 37.544v221.76m334.8-221.76v221.76m-334.8-221.76h334.8m-334.8 221.76h334.8"
     style="fill:none;stroke:#000;stroke-width:.8;stroke-linecap:square;stroke-linejoin:miter;stroke-miterlimit:10;stroke-dasharray:none;stroke-opacity:1"
     transform="matrix(1.33333 0 0 -1.33333 0 368.068)"
     id="path49" />
  <text
     xml:space="preserve"
     style="font-variant:normal;font-weight:400;font-size:6.5px;font-family:&quot;DejaVu Sans&quot;;-inkscape-font-specification:DejaVuSans;writing-mode:lr-tb;fill:#000;fill-opacity:1;fill-rule:nonzero;stroke:none"
     transform="translate(229.807 16.183)scale(1.33333)"
     id="text49"><tspan
       x="0 4.1209998 9.5679998 13.702"
       y="0"
       id="tspan49">n=57</tspan></text>
  <text
     xml:space="preserve"
     style="font-variant:normal;font-weight:400;font-size:6.5px;font-family:&quot;DejaVu Sans&quot;;-inkscape-font-specification:DejaVuSans;writing-mode:lr-tb;fill:#000;fill-opacity:1;fill-rule:nonzero;stroke:none"
     transform="translate(306.761 34.187)scale(1.33333)"
     id="text50"><tspan
       x="0 4.1209998 9.5679998 13.702 17.836"
       y="0"
       id="tspan50">n=663</tspan></text>
  <text
     xml:space="preserve"
     style="font-variant:normal;font-weight:400;font-size:6.5px;font-family:&quot;DejaVu Sans&quot;;-inkscape-font-specification:DejaVuSans;writing-mode:lr-tb;fill:#000;fill-opacity:1;fill-rule:nonzero;stroke:none"
     transform="translate(383.715 126.969)scale(1.33333)"
     id="text51"><tspan
       x="0 4.1209998 9.5679998 13.702 17.836 21.969999"
       y="0"
       id="tspan51">n=2366</tspan></text>
  <text
     xml:space="preserve"
     style="font-variant:normal;font-weight:400;font-size:6.5px;font-family:&quot;DejaVu Sans&quot;;-inkscape-font-specification:DejaVuSans;writing-mode:lr-tb;fill:#000;fill-opacity:1;fill-rule:nonzero;stroke:none"
     transform="translate(466.19 212.346)scale(1.33333)"
     id="text52"><tspan
       x="0 4.1209998 9.5679998 13.702 17.836"
       y="0"
       id="tspan52">n=699</tspan></text>
  <path
     d="M50.778 42.544h155.485q2 0 2 2v13.672q0 2-2 2H50.777q-2 0-2-2V44.544q0-2 2-2z"
     style="fill:#fff;fill-opacity:.8;fill-rule:nonzero;stroke:#ccc;stroke-width:1;stroke-linecap:butt;stroke-linejoin:miter;stroke-miterlimit:10;stroke-dasharray:none;stroke-opacity:.8"
     transform="matrix(1.33333 0 0 -1.33333 0 368.068)"
     id="path52" />
  <path
     d="M52.778 52.122h20"
     style="fill:none;stroke:#08326e;stroke-width:2;stroke-linecap:square;stroke-linejoin:round;stroke-miterlimit:10;stroke-dasharray:none;stroke-opacity:.8"
     transform="matrix(1.33333 0 0 -1.33333 0 368.068)"
     id="path53" />
  <text
     xml:space="preserve"
     style="font-variant:normal;font-weight:400;font-size:10px;font-family:&quot;DejaVu Sans&quot;;-inkscape-font-specification:DejaVuSans;writing-mode:lr-tb;fill:#000;fill-opacity:1;fill-rule:nonzero;stroke:none"
     transform="translate(107.704 303.238)scale(1.33333)"
     id="text53"><tspan
       x="0 5.5700002 11.14 17.27 25.9 32.521252 36.131248 42.491249 45.671249 52.03125 55.641251 62.001251 68.361252 74.721252 81.581253 85.191254 88.141251 94.481247 99.691254 103.61125 107.72125 114.06125 119.56125"
       y="0"
       id="tspan53">LLaMA-3.1-405B-Instruct</tspan></text>
</svg>
